<svg version="1.1" viewBox="0.0 0.0 1097.5905511811025 720.0" fill="none" stroke="none" stroke-linecap="square" stroke-miterlimit="10" xmlns:xlink="http://www.w3.org/1999/xlink" xmlns="http://www.w3.org/2000/svg"><clipPath id="p.0"><path d="m0 0l1097.5906 0l0 720.0l-1097.5906 0l0 -720.0z" clip-rule="nonzero"/></clipPath><g clip-path="url(#p.0)"><path fill="#000000" fill-opacity="0.0" d="m0 0l1097.5906 0l0 720.0l-1097.5906 0z" fill-rule="evenodd"/><path fill="#000000" fill-opacity="0.0" d="m182.85803 322.69077l200.0315 0l0 161.29132l-200.0315 0z" fill-rule="evenodd"/><path fill="#000000" d="m243.04553 413.41077l5.984375 -8.546875l-5.734375 -8.046875l5.359375 0l2.9375 4.5625l3.09375 -4.5625l5.15625 0l-5.625 7.859375l6.140625 8.734375l-5.390625 0l-3.375 -5.140625l-3.40625 5.140625l-5.140625 0z" fill-rule="nonzero"/><path fill="#000000" d="m269.04553 425.41077l-2.921875 0l0 -11.03125q-1.609375 1.5 -3.78125 2.21875l0 -2.65625q1.140625 -0.375 2.484375 -1.421875q1.34375 -1.046875 1.84375 -2.4375l2.375 0l0 15.328125z" fill-rule="nonzero"/><path fill="#000000" fill-opacity="0.0" d="m580.41864 187.28561l381.85828 0l0 161.29135l-381.85828 0z" fill-rule="evenodd"/><path fill="#000000" d="m657.403 269.58374l4.484375 1.421875q-1.03125 3.75 -3.4375 5.578125q-2.390625 1.8125 -6.078125 1.8125q-4.5625 0 -7.5 -3.109375q-2.9375 -3.125 -2.9375 -8.53125q0 -5.71875 2.953125 -8.875q2.953125 -3.171875 7.765625 -3.171875q4.203125 0 6.828125 2.484375q1.5625 1.46875 2.34375 4.21875l-4.578125 1.09375q-0.40625 -1.78125 -1.703125 -2.8125q-1.28125 -1.03125 -3.125 -1.03125q-2.546875 0 -4.140625 1.828125q-1.578125 1.828125 -1.578125 5.921875q0 4.34375 1.5625 6.1875q1.5625 1.84375 4.0625 1.84375q1.84375 0 3.171875 -1.171875q1.328125 -1.171875 1.90625 -3.6875zm18.03125 3.140625l4.375 0.734375q-0.84375 2.40625 -2.671875 3.671875q-1.8125 1.25 -4.546875 1.25q-4.328125 0 -6.40625 -2.828125q-1.640625 -2.265625 -1.640625 -5.71875q0 -4.125 2.15625 -6.453125q2.15625 -2.34375 5.453125 -2.34375q3.703125 0 5.84375 2.453125q2.140625 2.4375 2.046875 7.484375l-11.0 0q0.046875 1.953125 1.0625 3.046875q1.015625 1.078125 2.53125 1.078125q1.03125 0 1.734375 -0.5625q0.703125 -0.5625 1.0625 -1.8125zm0.25 -4.4375q-0.046875 -1.90625 -0.984375 -2.890625q-0.9375 -1.0 -2.28125 -1.0q-1.4375 0 -2.375 1.046875q-0.9375 1.046875 -0.921875 2.84375l6.5625 0zm23.03125 9.71875l-4.390625 0l0 -8.46875q0 -2.6875 -0.28125 -3.46875q-0.28125 -0.796875 -0.921875 -1.234375q-0.625 -0.4375 -1.515625 -0.4375q-1.140625 0 -2.046875 0.625q-0.90625 0.625 -1.25 1.65625q-0.328125 1.03125 -0.328125 3.8125l0 7.515625l-4.390625 0l0 -16.59375l4.078125 0l0 2.4375q2.171875 -2.8125 5.46875 -2.8125q1.453125 0 2.65625 0.53125q1.203125 0.515625 1.8125 1.328125q0.625 0.8125 0.859375 1.84375q0.25 1.03125 0.25 2.953125l0 10.3125zm12.0625 -16.59375l0 3.5l-3.0 0l0 6.6875q0 2.03125 0.078125 2.375q0.09375 0.328125 0.390625 0.546875q0.3125 0.21875 0.75 0.21875q0.609375 0 1.765625 -0.421875l0.375 3.40625q-1.53125 0.65625 -3.46875 0.65625q-1.1875 0 -2.140625 -0.390625q-0.953125 -0.40625 -1.40625 -1.03125q-0.4375 -0.640625 -0.609375 -1.71875q-0.140625 -0.765625 -0.140625 -3.09375l0 -7.234375l-2.015625 0l0 -3.5l2.015625 0l0 -3.296875l4.40625 -2.5625l0 5.859375l3.0 0zm12.65625 11.3125l4.375 0.734375q-0.84375 2.40625 -2.671875 3.671875q-1.8125 1.25 -4.546875 1.25q-4.328125 0 -6.40625 -2.828125q-1.640625 -2.265625 -1.640625 -5.71875q0 -4.125 2.15625 -6.453125q2.15625 -2.34375 5.453125 -2.34375q3.703125 0 5.84375 2.453125q2.140625 2.4375 2.046875 7.484375l-11.0 0q0.046875 1.953125 1.0625 3.046875q1.015625 1.078125 2.53125 1.078125q1.03125 0 1.734375 -0.5625q0.703125 -0.5625 1.0625 -1.8125zm0.25 -4.4375q-0.046875 -1.90625 -0.984375 -2.890625q-0.9375 -1.0 -2.28125 -1.0q-1.4375 0 -2.375 1.046875q-0.9375 1.046875 -0.921875 2.84375l6.5625 0zm12.140625 9.71875l-4.390625 0l0 -16.59375l4.078125 0l0 2.359375q1.046875 -1.671875 1.875 -2.203125q0.84375 -0.53125 1.90625 -0.53125q1.5 0 2.890625 0.828125l-1.359375 3.828125q-1.109375 -0.71875 -2.0625 -0.71875q-0.921875 0 -1.5625 0.515625q-0.640625 0.5 -1.015625 1.828125q-0.359375 1.328125 -0.359375 5.5625l0 5.125zm31.03125 -4.078125l0 4.078125l-15.390625 0q0.25 -2.3125 1.5 -4.375q1.25 -2.078125 4.9375 -5.5q2.96875 -2.765625 3.640625 -3.75q0.90625 -1.359375 0.90625 -2.6875q0 -1.46875 -0.796875 -2.25q-0.78125 -0.796875 -2.171875 -0.796875q-1.375 0 -2.1875 0.828125q-0.8125 0.828125 -0.9375 2.75l-4.375 -0.4375q0.390625 -3.625 2.453125 -5.203125q2.0625 -1.578125 5.15625 -1.578125q3.390625 0 5.328125 1.828125q1.9375 1.828125 1.9375 4.546875q0 1.546875 -0.5625 2.953125q-0.546875 1.390625 -1.75 2.921875q-0.796875 1.015625 -2.875 2.921875q-2.078125 1.90625 -2.640625 2.53125q-0.546875 0.625 -0.890625 1.21875l8.71875 0z" fill-rule="nonzero"/><path fill="#000000" fill-opacity="0.0" d="m30.238945 222.9242l381.85825 0l0 161.29135l-381.85825 0z" fill-rule="evenodd"/><path fill="#000000" d="m107.22332 305.22232l4.484375 1.421875q-1.03125 3.75 -3.4375 5.578125q-2.390625 1.8125 -6.078125 1.8125q-4.5625 0 -7.5 -3.109375q-2.9375 -3.125 -2.9375 -8.53125q0 -5.71875 2.953125 -8.875q2.953125 -3.171875 7.765625 -3.171875q4.203125 0 6.828125 2.484375q1.5625 1.46875 2.34375 4.21875l-4.578125 1.09375q-0.40625 -1.78125 -1.703125 -2.8125q-1.28125 -1.03125 -3.125 -1.03125q-2.546875 0 -4.140625 1.828125q-1.578125 1.828125 -1.578125 5.921875q0 4.34375 1.5625 6.1875q1.5625 1.84375 4.0625 1.84375q1.84375 0 3.171875 -1.171875q1.328125 -1.171875 1.90625 -3.6875zm18.03125 3.140625l4.3750076 0.734375q-0.84375 2.40625 -2.6718826 3.671875q-1.8125 1.25 -4.546875 1.25q-4.328125 0 -6.40625 -2.828125q-1.640625 -2.265625 -1.640625 -5.71875q0 -4.125 2.15625 -6.453125q2.15625 -2.34375 5.453125 -2.34375q3.703125 0 5.84375 2.453125q2.1406326 2.4375 2.0468826 7.484375l-11.000008 0q0.046875 1.953125 1.0625 3.046875q1.015625 1.078125 2.53125 1.078125q1.03125 0 1.734375 -0.5625q0.703125 -0.5625 1.0625 -1.8125zm0.25 -4.4375q-0.046875 -1.90625 -0.984375 -2.890625q-0.9375 -1.0 -2.28125 -1.0q-1.4375 0 -2.375 1.046875q-0.9375 1.046875 -0.921875 2.84375l6.5625 0zm23.031258 9.71875l-4.390625 0l0 -8.46875q0 -2.6875 -0.28125 -3.46875q-0.28125 -0.796875 -0.921875 -1.234375q-0.625 -0.4375 -1.515625 -0.4375q-1.140625 0 -2.046875 0.625q-0.90625 0.625 -1.25 1.65625q-0.328125 1.03125 -0.328125 3.8125l0 7.515625l-4.390625 0l0 -16.59375l4.078125 0l0 2.4375q2.171875 -2.8125 5.46875 -2.8125q1.453125 0 2.65625 0.53125q1.203125 0.515625 1.8125 1.328125q0.625 0.8125 0.859375 1.84375q0.25 1.03125 0.25 2.953125l0 10.3125zm12.0625 -16.59375l0 3.5l-3.0 0l0 6.6875q0 2.03125 0.078125 2.375q0.09375 0.328125 0.390625 0.546875q0.3125 0.21875 0.75 0.21875q0.609375 0 1.765625 -0.421875l0.375 3.40625q-1.53125 0.65625 -3.46875 0.65625q-1.1875 0 -2.140625 -0.390625q-0.953125 -0.40625 -1.40625 -1.03125q-0.4375 -0.640625 -0.609375 -1.71875q-0.140625 -0.765625 -0.140625 -3.09375l0 -7.234375l-2.015625 0l0 -3.5l2.015625 0l0 -3.296875l4.40625 -2.5625l0 5.859375l3.0 0zm12.65625 11.3125l4.375 0.734375q-0.84375 2.40625 -2.671875 3.671875q-1.8125 1.25 -4.546875 1.25q-4.328125 0 -6.40625 -2.828125q-1.640625 -2.265625 -1.640625 -5.71875q0 -4.125 2.15625 -6.453125q2.15625 -2.34375 5.453125 -2.34375q3.703125 0 5.84375 2.453125q2.140625 2.4375 2.046875 7.484375l-11.0 0q0.046875 1.953125 1.0625 3.046875q1.015625 1.078125 2.53125 1.078125q1.03125 0 1.734375 -0.5625q0.703125 -0.5625 1.0625 -1.8125zm0.25 -4.4375q-0.046875 -1.90625 -0.984375 -2.890625q-0.9375 -1.0 -2.28125 -1.0q-1.4375 0 -2.375 1.046875q-0.9375 1.046875 -0.921875 2.84375l6.5625 0zm12.140625 9.71875l-4.390625 0l0 -16.59375l4.078125 0l0 2.359375q1.046875 -1.671875 1.875 -2.203125q0.84375 -0.53125 1.90625 -0.53125q1.5 0 2.890625 0.828125l-1.359375 3.828125q-1.109375 -0.71875 -2.0625 -0.71875q-0.921875 0 -1.5625 0.515625q-0.640625 0.5 -1.015625 1.828125q-0.359375 1.328125 -0.359375 5.5625l0 5.125zm27.4375 0l-4.390625 0l0 -16.546875q-2.40625 2.25 -5.671875 3.328125l0 -3.984375q1.71875 -0.5625 3.734375 -2.125q2.015625 -1.578125 2.765625 -3.671875l3.5625 0l0 23.0z" fill-rule="nonzero"/><path fill="#000000" fill-opacity="0.0" d="m810.8938 333.93637l200.0315 0l0 161.29135l-200.0315 0z" fill-rule="evenodd"/><path fill="#000000" d="m871.0813 424.65637l5.984375 -8.546875l-5.734375 -8.046875l5.359375 0l2.9375 4.5625l3.09375 -4.5625l5.15625 0l-5.625 7.859375l6.140625 8.734375l-5.390625 0l-3.375 -5.140625l-3.40625 5.140625l-5.140625 0z" fill-rule="nonzero"/><path fill="#000000" d="m889.48755 432.6095l2.84375 -0.34375q0.125 1.078125 0.71875 1.65625q0.59375 0.5625 1.4375 0.5625q0.90625 0 1.53125 -0.6875q0.625 -0.6875 0.625 -1.84375q0 -1.109375 -0.59375 -1.75q-0.59375 -0.65625 -1.453125 -0.65625q-0.5625 0 -1.34375 0.21875l0.328125 -2.375q1.1875 0.03125 1.8125 -0.515625q0.625 -0.546875 0.625 -1.453125q0 -0.765625 -0.46875 -1.21875q-0.453125 -0.46875 -1.21875 -0.46875q-0.75 0 -1.28125 0.53125q-0.53125 0.515625 -0.640625 1.515625l-2.703125 -0.46875q0.28125 -1.375 0.84375 -2.203125q0.578125 -0.828125 1.59375 -1.296875q1.015625 -0.484375 2.28125 -0.484375q2.15625 0 3.453125 1.375q1.078125 1.125 1.078125 2.546875q0 2.0 -2.203125 3.203125q1.3125 0.28125 2.09375 1.265625q0.78125 0.96875 0.78125 2.359375q0 2.0 -1.46875 3.421875q-1.453125 1.421875 -3.640625 1.421875q-2.078125 0 -3.453125 -1.1875q-1.359375 -1.203125 -1.578125 -3.125z" fill-rule="nonzero"/><path fill="#000000" fill-opacity="0.0" d="m42.812057 0.6600339l824.4094 0l0 161.29134l-824.4094 0z" fill-rule="evenodd"/><path fill="#000000" d="m119.79643 82.95816l4.484375 1.421875q-1.03125 3.75 -3.4375 5.578125q-2.390625 1.8125 -6.078125 1.8125q-4.5625 0 -7.5 -3.109375q-2.9375 -3.125 -2.9375 -8.53125q0 -5.71875 2.953125 -8.875q2.953125 -3.171875 7.765625 -3.171875q4.203125 0 6.828125 2.484375q1.5625 1.46875 2.34375 4.21875l-4.578125 1.09375q-0.40625 -1.78125 -1.703125 -2.8125q-1.28125 -1.03125 -3.125 -1.03125q-2.546875 0 -4.140625 1.828125q-1.578125 1.828125 -1.578125 5.921875q0 4.34375 1.5625 6.1875q1.5625 1.84375 4.0625 1.84375q1.84375 0 3.171875 -1.171875q1.328125 -1.171875 1.90625 -3.6875zm18.03125 3.140625l4.375 0.734375q-0.84375 2.40625 -2.671875 3.671875q-1.8125 1.25 -4.546875 1.25q-4.328125 0 -6.40625 -2.828125q-1.640625 -2.265625 -1.640625 -5.71875q0 -4.125 2.15625 -6.453125q2.15625 -2.34375 5.453125 -2.34375q3.703125 0 5.84375 2.453125q2.140625 2.4375 2.046875 7.484375l-11.0 0q0.046875 1.953125 1.0625 3.046875q1.015625 1.078125 2.53125 1.078125q1.03125 0 1.734375 -0.5625q0.703125 -0.5625 1.0625 -1.8125zm0.25 -4.4375q-0.046875 -1.90625 -0.984375 -2.890625q-0.9375 -1.0 -2.28125 -1.0q-1.4375 0 -2.375 1.046875q-0.9375 1.046875 -0.921875 2.84375l6.5625 0zm23.03125 9.71875l-4.390625 0l0 -8.46875q0 -2.6875 -0.28125 -3.46875q-0.28125 -0.796875 -0.921875 -1.234375q-0.625 -0.4375 -1.515625 -0.4375q-1.140625 0 -2.046875 0.625q-0.90625 0.625 -1.25 1.65625q-0.328125 1.03125 -0.328125 3.8125l0 7.515625l-4.390625 0l0 -16.59375l4.078125 0l0 2.4375q2.171875 -2.8125 5.46875 -2.8125q1.453125 0 2.65625 0.53125q1.203125 0.515625 1.8125 1.328125q0.625 0.8125 0.859375 1.84375q0.25 1.03125 0.25 2.953125l0 10.3125zm12.0625 -16.59375l0 3.5l-3.0 0l0 6.6875q0 2.03125 0.078125 2.375q0.09375 0.328125 0.390625 0.546875q0.3125 0.21875 0.75 0.21875q0.609375 0 1.765625 -0.421875l0.375 3.40625q-1.53125 0.65625 -3.46875 0.65625q-1.1875 0 -2.140625 -0.390625q-0.953125 -0.40625 -1.40625 -1.03125q-0.4375 -0.640625 -0.609375 -1.71875q-0.140625 -0.765625 -0.140625 -3.09375l0 -7.234375l-2.015625 0l0 -3.5l2.015625 0l0 -3.296875l4.40625 -2.5625l0 5.859375l3.0 0zm12.65625 11.3125l4.375 0.734375q-0.84375 2.40625 -2.671875 3.671875q-1.8125 1.25 -4.546875 1.25q-4.328125 0 -6.40625 -2.828125q-1.640625 -2.265625 -1.640625 -5.71875q0 -4.125 2.15625 -6.453125q2.15625 -2.34375 5.453125 -2.34375q3.703125 0 5.84375 2.453125q2.140625 2.4375 2.046875 7.484375l-11.0 0q0.046875 1.953125 1.0625 3.046875q1.015625 1.078125 2.53125 1.078125q1.03125 0 1.734375 -0.5625q0.703125 -0.5625 1.0625 -1.8125zm0.25 -4.4375q-0.046875 -1.90625 -0.984375 -2.890625q-0.9375 -1.0 -2.28125 -1.0q-1.4375 0 -2.375 1.046875q-0.9375 1.046875 -0.921875 2.84375l6.5625 0zm12.140625 9.71875l-4.390625 0l0 -16.59375l4.078125 0l0 2.359375q1.046875 -1.671875 1.875 -2.203125q0.84375 -0.53125 1.90625 -0.53125q1.5 0 2.890625 0.828125l-1.359375 3.828125q-1.109375 -0.71875 -2.0625 -0.71875q-0.921875 0 -1.5625 0.515625q-0.640625 0.5 -1.015625 1.828125q-0.359375 1.328125 -0.359375 5.5625l0 5.125zm23.625 -23.0q3.328125 0 5.203125 2.375q2.234375 2.8125 2.234375 9.328125q0 6.5 -2.25 9.34375q-1.859375 2.34375 -5.1875 2.34375q-3.34375 0 -5.390625 -2.5625q-2.046875 -2.578125 -2.046875 -9.171875q0 -6.46875 2.25 -9.3125q1.859375 -2.34375 5.1875 -2.34375zm0 3.640625q-0.796875 0 -1.421875 0.515625q-0.625 0.5 -0.96875 1.8125q-0.453125 1.703125 -0.453125 5.734375q0 4.03125 0.40625 5.546875q0.40625 1.5 1.015625 2.0q0.625 0.5 1.421875 0.5q0.796875 0 1.421875 -0.5q0.625 -0.515625 0.96875 -1.828125q0.453125 -1.6875 0.453125 -5.71875q0 -4.03125 -0.40625 -5.53125q-0.40625 -1.515625 -1.03125 -2.015625q-0.609375 -0.515625 -1.40625 -0.515625z" fill-rule="nonzero"/><path fill="#ea9999" d="m163.46457 121.30446l0 0c0 -4.1747513 3.3843079 -7.5590515 7.5590515 -7.5590515l0 0c2.0047913 0 3.9274597 0.79639435 5.3450623 2.213997c1.4176025 1.4175949 2.2139893 3.340271 2.2139893 5.3450546l0 0c0 4.1747513 -3.3842926 7.5590515 -7.5590515 7.5590515l0 0c-4.1747437 0 -7.5590515 -3.3843002 -7.5590515 -7.5590515z" fill-rule="evenodd"/><path stroke="#000000" stroke-width="1.0" stroke-linejoin="round" stroke-linecap="butt" d="m163.46457 121.30446l0 0c0 -4.1747513 3.3843079 -7.5590515 7.5590515 -7.5590515l0 0c2.0047913 0 3.9274597 0.79639435 5.3450623 2.213997c1.4176025 1.4175949 2.2139893 3.340271 2.2139893 5.3450546l0 0c0 4.1747513 -3.3842926 7.5590515 -7.5590515 7.5590515l0 0c-4.1747437 0 -7.5590515 -3.3843002 -7.5590515 -7.5590515z" fill-rule="evenodd"/><path fill="#ea9999" d="m167.74016 349.55118l0 0c0 -4.1747437 3.3843079 -7.5590515 7.5590515 -7.5590515l0 0c2.0047913 0 3.9274597 0.7963867 5.3450623 2.2139893c1.4176025 1.4176025 2.2139893 3.340271 2.2139893 5.3450623l0 0c0 4.1747437 -3.3842926 7.5590515 -7.5590515 7.5590515l0 0c-4.1747437 0 -7.5590515 -3.3843079 -7.5590515 -7.5590515z" fill-rule="evenodd"/><path stroke="#000000" stroke-width="1.0" stroke-linejoin="round" stroke-linecap="butt" d="m167.74016 349.55118l0 0c0 -4.1747437 3.3843079 -7.5590515 7.5590515 -7.5590515l0 0c2.0047913 0 3.9274597 0.7963867 5.3450623 2.2139893c1.4176025 1.4176025 2.2139893 3.340271 2.2139893 5.3450623l0 0c0 4.1747437 -3.3842926 7.5590515 -7.5590515 7.5590515l0 0c-4.1747437 0 -7.5590515 -3.3843079 -7.5590515 -7.5590515z" fill-rule="evenodd"/><path fill="#ea9999" d="m710.25195 315.13123l0 0c0 -4.1747437 3.3843384 -7.5590515 7.559082 -7.5590515l0 0c2.0047607 0 3.9274292 0.79641724 5.3450317 2.2139893c1.4176025 1.4176025 2.2139893 3.340271 2.2139893 5.3450623l0 0c0 4.1747437 -3.3842773 7.5590515 -7.559021 7.5590515l0 0c-4.1747437 0 -7.559082 -3.3843079 -7.559082 -7.5590515z" fill-rule="evenodd"/><path stroke="#000000" stroke-width="1.0" stroke-linejoin="round" stroke-linecap="butt" d="m710.25195 315.13123l0 0c0 -4.1747437 3.3843384 -7.5590515 7.559082 -7.5590515l0 0c2.0047607 0 3.9274292 0.79641724 5.3450317 2.2139893c1.4176025 1.4176025 2.2139893 3.340271 2.2139893 5.3450623l0 0c0 4.1747437 -3.3842773 7.5590515 -7.559021 7.5590515l0 0c-4.1747437 0 -7.559082 -3.3843079 -7.559082 -7.5590515z" fill-rule="evenodd"/><path fill="#9fc5e8" d="m877.3307 476.72964l0 0c0 -4.1747437 3.3843384 -7.5590515 7.559082 -7.5590515l0 0c2.0047607 0 3.9274292 0.79641724 5.3450317 2.2140198c1.4176025 1.417572 2.2139893 3.340271 2.2139893 5.3450317l0 0c0 4.174774 -3.3842773 7.559082 -7.559021 7.559082l0 0c-4.1747437 0 -7.559082 -3.3843079 -7.559082 -7.559082z" fill-rule="evenodd"/><path stroke="#000000" stroke-width="1.0" stroke-linejoin="round" stroke-linecap="butt" d="m877.3307 476.72964l0 0c0 -4.1747437 3.3843384 -7.5590515 7.559082 -7.5590515l0 0c2.0047607 0 3.9274292 0.79641724 5.3450317 2.2140198c1.4176025 1.417572 2.2139893 3.340271 2.2139893 5.3450317l0 0c0 4.174774 -3.3842773 7.559082 -7.559021 7.559082l0 0c-4.1747437 0 -7.559082 -3.3843079 -7.559082 -7.559082z" fill-rule="evenodd"/><path fill="#9fc5e8" d="m250.63255 459.34647l0 0c0 -4.174774 3.3842926 -7.5590515 7.5590363 -7.5590515l0 0c2.0047913 0 3.9274597 0.7963867 5.3450623 2.2139893c1.4176025 1.4176025 2.2140198 3.340271 2.2140198 5.3450623l0 0c0 4.1747437 -3.3843079 7.5590515 -7.559082 7.5590515l0 0c-4.1747437 0 -7.5590363 -3.3843079 -7.5590363 -7.5590515z" fill-rule="evenodd"/><path stroke="#000000" stroke-width="1.0" stroke-linejoin="round" stroke-linecap="butt" d="m250.63255 459.34647l0 0c0 -4.174774 3.3842926 -7.5590515 7.5590363 -7.5590515l0 0c2.0047913 0 3.9274597 0.7963867 5.3450623 2.2139893c1.4176025 1.4176025 2.2140198 3.340271 2.2140198 5.3450623l0 0c0 4.1747437 -3.3843079 7.5590515 -7.559082 7.5590515l0 0c-4.1747437 0 -7.5590363 -3.3843079 -7.5590363 -7.5590515z" fill-rule="evenodd"/><path fill="#000000" fill-opacity="0.0" d="m60.144356 671.92126l0 -660.18896" fill-rule="evenodd"/><path stroke="#000000" stroke-width="4.0" stroke-linejoin="round" stroke-linecap="butt" d="m60.144356 671.92126l0 -660.18896" fill-rule="evenodd"/><path fill="#000000" fill-opacity="0.0" d="m15.582677 626.18896l955.7165 0" fill-rule="evenodd"/><path stroke="#000000" stroke-width="4.0" stroke-linejoin="round" stroke-linecap="butt" d="m15.582677 626.18896l955.7165 0" fill-rule="evenodd"/><path fill="#000000" fill-opacity="0.0" d="m623.445 348.57678l200.0315 0l0 161.29135l-200.0315 0z" fill-rule="evenodd"/><path fill="#000000" d="m683.6325 439.29678l5.984375 -8.546875l-5.734375 -8.046875l5.359375 0l2.9375 4.5625l3.09375 -4.5625l5.15625 0l-5.625 7.859375l6.140625 8.734375l-5.390625 0l-3.375 -5.140625l-3.40625 5.140625l-5.140625 0z" fill-rule="nonzero"/><path fill="#000000" d="m712.02313 448.57803l0 2.71875l-10.25 0q0.171875 -1.546875 1.0 -2.921875q0.828125 -1.375 3.296875 -3.65625q1.96875 -1.84375 2.421875 -2.5q0.609375 -0.90625 0.609375 -1.796875q0 -0.96875 -0.53125 -1.5q-0.53125 -0.53125 -1.453125 -0.53125q-0.921875 0 -1.46875 0.5625q-0.53125 0.546875 -0.609375 1.828125l-2.921875 -0.296875q0.265625 -2.40625 1.640625 -3.453125q1.375 -1.0625 3.4375 -1.0625q2.25 0 3.53125 1.21875q1.296875 1.21875 1.296875 3.03125q0 1.03125 -0.375 1.96875q-0.359375 0.921875 -1.15625 1.9375q-0.53125 0.6875 -1.921875 1.953125q-1.375 1.265625 -1.75 1.6875q-0.375 0.421875 -0.59375 0.8125l5.796875 0z" fill-rule="nonzero"/><path fill="#9fc5e8" d="m689.8819 491.3701l0 0c0 -4.1747437 3.3842773 -7.5590515 7.559021 -7.5590515l0 0c2.0048218 0 3.9274902 0.7963867 5.345093 2.2139893c1.4176025 1.4176025 2.2139893 3.340271 2.2139893 5.3450623l0 0c0 4.1747437 -3.3842773 7.5590515 -7.559082 7.5590515l0 0c-4.1747437 0 -7.559021 -3.3843079 -7.559021 -7.5590515z" fill-rule="evenodd"/><path stroke="#000000" stroke-width="1.0" stroke-linejoin="round" stroke-linecap="butt" d="m689.8819 491.3701l0 0c0 -4.1747437 3.3842773 -7.5590515 7.559021 -7.5590515l0 0c2.0048218 0 3.9274902 0.7963867 5.345093 2.2139893c1.4176025 1.4176025 2.2139893 3.340271 2.2139893 5.3450623l0 0c0 4.1747437 -3.3842773 7.5590515 -7.559082 7.5590515l0 0c-4.1747437 0 -7.559021 -3.3843079 -7.559021 -7.5590515z" fill-rule="evenodd"/></g></svg>